<mxfile host="app.diagrams.net" agent="Mozilla/5.0 (Windows NT 10.0; Win64; x64) AppleWebKit/537.36 (KHTML, like Gecko) Chrome/130.0.0.0 Safari/537.36" version="24.8.3">
  <diagram name="Page-1" id="NcZPUVl0ydtOLilTajpt">
    <mxGraphModel dx="1707" dy="460" grid="1" gridSize="10" guides="1" tooltips="1" connect="1" arrows="1" fold="1" page="1" pageScale="1" pageWidth="827" pageHeight="1169" math="0" shadow="0">
      <root>
        <mxCell id="0" />
        <mxCell id="1" parent="0" />
        <mxCell id="u_KcOXQezjTu5k9KhrhK-42" value="" style="rounded=1;whiteSpace=wrap;html=1;absoluteArcSize=1;arcSize=14;strokeWidth=2;" vertex="1" parent="1">
          <mxGeometry x="240" y="610" width="270" height="150" as="geometry" />
        </mxCell>
        <mxCell id="u_KcOXQezjTu5k9KhrhK-4" style="edgeStyle=orthogonalEdgeStyle;rounded=0;orthogonalLoop=1;jettySize=auto;html=1;" edge="1" parent="1">
          <mxGeometry relative="1" as="geometry">
            <mxPoint x="330" y="140" as="targetPoint" />
            <mxPoint x="329.5" y="100" as="sourcePoint" />
          </mxGeometry>
        </mxCell>
        <mxCell id="u_KcOXQezjTu5k9KhrhK-1" value="" style="rounded=0;whiteSpace=wrap;html=1;" vertex="1" parent="1">
          <mxGeometry x="120" y="40" width="420" height="60" as="geometry" />
        </mxCell>
        <mxCell id="u_KcOXQezjTu5k9KhrhK-2" value="Project 1: &lt;font color=&quot;#4d9900&quot;&gt;AWS Serverless Project | Ec2 Start and Stop using Lambda.&lt;br&gt;&lt;/font&gt;" style="text;html=1;align=center;verticalAlign=middle;whiteSpace=wrap;rounded=0;" vertex="1" parent="1">
          <mxGeometry x="90" y="55" width="480" height="30" as="geometry" />
        </mxCell>
        <mxCell id="u_KcOXQezjTu5k9KhrhK-15" value="&lt;b&gt;Required Resources&amp;nbsp;&lt;/b&gt;" style="swimlane;fontStyle=0;childLayout=stackLayout;horizontal=1;startSize=30;horizontalStack=0;resizeParent=1;resizeParentMax=0;resizeLast=0;collapsible=1;marginBottom=0;whiteSpace=wrap;html=1;" vertex="1" parent="1">
          <mxGeometry x="260" y="140" width="140" height="170" as="geometry" />
        </mxCell>
        <mxCell id="u_KcOXQezjTu5k9KhrhK-23" value="" style="shape=table;startSize=0;container=1;collapsible=0;childLayout=tableLayout;fontSize=11;fillColor=none;strokeColor=none;" vertex="1" parent="u_KcOXQezjTu5k9KhrhK-15">
          <mxGeometry y="30" width="140" height="140" as="geometry" />
        </mxCell>
        <mxCell id="u_KcOXQezjTu5k9KhrhK-24" value="" style="shape=tableRow;horizontal=0;startSize=0;swimlaneHead=0;swimlaneBody=0;strokeColor=inherit;top=0;left=0;bottom=0;right=0;collapsible=0;dropTarget=0;fillColor=none;points=[[0,0.5],[1,0.5]];portConstraint=eastwest;fontSize=16;" vertex="1" parent="u_KcOXQezjTu5k9KhrhK-23">
          <mxGeometry width="140" height="30" as="geometry" />
        </mxCell>
        <mxCell id="u_KcOXQezjTu5k9KhrhK-25" value="&lt;font color=&quot;#4d9900&quot;&gt;EC2&lt;/font&gt;" style="shape=partialRectangle;html=1;whiteSpace=wrap;connectable=0;strokeColor=inherit;overflow=hidden;fillColor=none;top=0;left=0;bottom=0;right=0;pointerEvents=1;fontSize=12;align=left;spacingLeft=5;" vertex="1" parent="u_KcOXQezjTu5k9KhrhK-24">
          <mxGeometry width="140" height="30" as="geometry">
            <mxRectangle width="140" height="30" as="alternateBounds" />
          </mxGeometry>
        </mxCell>
        <mxCell id="u_KcOXQezjTu5k9KhrhK-26" value="" style="shape=tableRow;horizontal=0;startSize=0;swimlaneHead=0;swimlaneBody=0;strokeColor=inherit;top=0;left=0;bottom=0;right=0;collapsible=0;dropTarget=0;fillColor=none;points=[[0,0.5],[1,0.5]];portConstraint=eastwest;fontSize=16;" vertex="1" parent="u_KcOXQezjTu5k9KhrhK-23">
          <mxGeometry y="30" width="140" height="30" as="geometry" />
        </mxCell>
        <mxCell id="u_KcOXQezjTu5k9KhrhK-27" value="&lt;font color=&quot;#009900&quot;&gt;IAM&lt;/font&gt;" style="shape=partialRectangle;html=1;whiteSpace=wrap;connectable=0;strokeColor=inherit;overflow=hidden;fillColor=none;top=0;left=0;bottom=0;right=0;pointerEvents=1;fontSize=12;align=left;spacingLeft=5;" vertex="1" parent="u_KcOXQezjTu5k9KhrhK-26">
          <mxGeometry width="140" height="30" as="geometry">
            <mxRectangle width="140" height="30" as="alternateBounds" />
          </mxGeometry>
        </mxCell>
        <mxCell id="u_KcOXQezjTu5k9KhrhK-28" value="" style="shape=tableRow;horizontal=0;startSize=0;swimlaneHead=0;swimlaneBody=0;strokeColor=inherit;top=0;left=0;bottom=0;right=0;collapsible=0;dropTarget=0;fillColor=none;points=[[0,0.5],[1,0.5]];portConstraint=eastwest;fontSize=16;" vertex="1" parent="u_KcOXQezjTu5k9KhrhK-23">
          <mxGeometry y="60" width="140" height="30" as="geometry" />
        </mxCell>
        <mxCell id="u_KcOXQezjTu5k9KhrhK-29" value="&lt;span style=&quot;color: rgb(0, 153, 0);&quot;&gt;Lambda&lt;/span&gt;" style="shape=partialRectangle;html=1;whiteSpace=wrap;connectable=0;strokeColor=inherit;overflow=hidden;fillColor=none;top=0;left=0;bottom=0;right=0;pointerEvents=1;fontSize=12;align=left;spacingLeft=5;" vertex="1" parent="u_KcOXQezjTu5k9KhrhK-28">
          <mxGeometry width="140" height="30" as="geometry">
            <mxRectangle width="140" height="30" as="alternateBounds" />
          </mxGeometry>
        </mxCell>
        <mxCell id="u_KcOXQezjTu5k9KhrhK-30" style="shape=tableRow;horizontal=0;startSize=0;swimlaneHead=0;swimlaneBody=0;strokeColor=inherit;top=0;left=0;bottom=0;right=0;collapsible=0;dropTarget=0;fillColor=none;points=[[0,0.5],[1,0.5]];portConstraint=eastwest;fontSize=16;" vertex="1" parent="u_KcOXQezjTu5k9KhrhK-23">
          <mxGeometry y="90" width="140" height="50" as="geometry" />
        </mxCell>
        <mxCell id="u_KcOXQezjTu5k9KhrhK-31" value="&lt;span style=&quot;color: rgb(0, 153, 0);&quot;&gt;API gateway&lt;/span&gt;&lt;div&gt;&lt;span style=&quot;color: rgb(0, 153, 0);&quot;&gt;&lt;br&gt;&lt;/span&gt;&lt;/div&gt;&lt;div&gt;&lt;span style=&quot;color: rgb(0, 153, 0);&quot;&gt;HTML Page&lt;/span&gt;&lt;/div&gt;" style="shape=partialRectangle;html=1;whiteSpace=wrap;connectable=0;strokeColor=inherit;overflow=hidden;fillColor=none;top=0;left=0;bottom=0;right=0;pointerEvents=1;fontSize=12;align=left;spacingLeft=5;" vertex="1" parent="u_KcOXQezjTu5k9KhrhK-30">
          <mxGeometry width="140" height="50" as="geometry">
            <mxRectangle width="140" height="50" as="alternateBounds" />
          </mxGeometry>
        </mxCell>
        <mxCell id="u_KcOXQezjTu5k9KhrhK-32" value="" style="shape=flexArrow;endArrow=classic;html=1;rounded=0;exitX=0.5;exitY=1.2;exitDx=0;exitDy=0;exitPerimeter=0;" edge="1" parent="1" source="u_KcOXQezjTu5k9KhrhK-30">
          <mxGeometry width="50" height="50" relative="1" as="geometry">
            <mxPoint x="380" y="313" as="sourcePoint" />
            <mxPoint x="330" y="400" as="targetPoint" />
            <Array as="points">
              <mxPoint x="330" y="360" />
            </Array>
          </mxGeometry>
        </mxCell>
        <mxCell id="u_KcOXQezjTu5k9KhrhK-35" value="Start Lambda" style="sketch=0;outlineConnect=0;fontColor=#232F3E;gradientColor=none;strokeColor=#ffffff;fillColor=#232F3E;dashed=0;verticalLabelPosition=middle;verticalAlign=bottom;align=center;html=1;whiteSpace=wrap;fontSize=10;fontStyle=1;spacing=3;shape=mxgraph.aws4.productIcon;prIcon=mxgraph.aws4.lambda;" vertex="1" parent="1">
          <mxGeometry x="70" y="630" width="80" height="100" as="geometry" />
        </mxCell>
        <mxCell id="u_KcOXQezjTu5k9KhrhK-36" value="Stop Lambda" style="sketch=0;outlineConnect=0;fontColor=#232F3E;gradientColor=none;strokeColor=#ffffff;fillColor=#232F3E;dashed=0;verticalLabelPosition=middle;verticalAlign=bottom;align=center;html=1;whiteSpace=wrap;fontSize=10;fontStyle=1;spacing=3;shape=mxgraph.aws4.productIcon;prIcon=mxgraph.aws4.lambda;" vertex="1" parent="1">
          <mxGeometry x="600" y="630" width="80" height="100" as="geometry" />
        </mxCell>
        <mxCell id="u_KcOXQezjTu5k9KhrhK-47" value="" style="edgeStyle=orthogonalEdgeStyle;rounded=0;orthogonalLoop=1;jettySize=auto;html=1;" edge="1" parent="1" source="u_KcOXQezjTu5k9KhrhK-37" target="u_KcOXQezjTu5k9KhrhK-35">
          <mxGeometry relative="1" as="geometry" />
        </mxCell>
        <mxCell id="u_KcOXQezjTu5k9KhrhK-37" value="AMI" style="sketch=0;outlineConnect=0;fontColor=#232F3E;gradientColor=none;strokeColor=#232F3E;fillColor=#ffffff;dashed=0;verticalLabelPosition=bottom;verticalAlign=top;align=center;html=1;fontSize=12;fontStyle=0;aspect=fixed;shape=mxgraph.aws4.resourceIcon;resIcon=mxgraph.aws4.ami;" vertex="1" parent="1">
          <mxGeometry x="80" y="510" width="60" height="60" as="geometry" />
        </mxCell>
        <mxCell id="u_KcOXQezjTu5k9KhrhK-57" style="edgeStyle=orthogonalEdgeStyle;rounded=0;orthogonalLoop=1;jettySize=auto;html=1;" edge="1" parent="1" source="u_KcOXQezjTu5k9KhrhK-38" target="u_KcOXQezjTu5k9KhrhK-36">
          <mxGeometry relative="1" as="geometry" />
        </mxCell>
        <mxCell id="u_KcOXQezjTu5k9KhrhK-38" value="AMI" style="sketch=0;outlineConnect=0;fontColor=#232F3E;gradientColor=none;strokeColor=#232F3E;fillColor=#ffffff;dashed=0;verticalLabelPosition=bottom;verticalAlign=top;align=center;html=1;fontSize=12;fontStyle=0;aspect=fixed;shape=mxgraph.aws4.resourceIcon;resIcon=mxgraph.aws4.ami;" vertex="1" parent="1">
          <mxGeometry x="610" y="500" width="60" height="60" as="geometry" />
        </mxCell>
        <mxCell id="u_KcOXQezjTu5k9KhrhK-40" value="Stop API Gateway" style="sketch=0;outlineConnect=0;fontColor=#232F3E;gradientColor=none;strokeColor=#ffffff;fillColor=#232F3E;dashed=0;verticalLabelPosition=middle;verticalAlign=bottom;align=center;html=1;whiteSpace=wrap;fontSize=10;fontStyle=1;spacing=3;shape=mxgraph.aws4.productIcon;prIcon=mxgraph.aws4.api_gateway;" vertex="1" parent="1">
          <mxGeometry x="390" y="630" width="80" height="110" as="geometry" />
        </mxCell>
        <mxCell id="u_KcOXQezjTu5k9KhrhK-41" value="Start&amp;nbsp; API Gateway&amp;nbsp;" style="sketch=0;outlineConnect=0;fontColor=#232F3E;gradientColor=none;strokeColor=#ffffff;fillColor=#232F3E;dashed=0;verticalLabelPosition=middle;verticalAlign=bottom;align=center;html=1;whiteSpace=wrap;fontSize=10;fontStyle=1;spacing=3;shape=mxgraph.aws4.productIcon;prIcon=mxgraph.aws4.api_gateway;" vertex="1" parent="1">
          <mxGeometry x="270" y="630" width="80" height="110" as="geometry" />
        </mxCell>
        <mxCell id="u_KcOXQezjTu5k9KhrhK-54" value="EC2 Full Access" style="text;html=1;align=center;verticalAlign=middle;resizable=0;points=[];autosize=1;strokeColor=none;fillColor=none;" vertex="1" parent="1">
          <mxGeometry x="-20" y="570" width="110" height="30" as="geometry" />
        </mxCell>
        <mxCell id="u_KcOXQezjTu5k9KhrhK-58" value="IAM Role" style="text;html=1;align=center;verticalAlign=middle;resizable=0;points=[];autosize=1;strokeColor=none;fillColor=none;" vertex="1" parent="1">
          <mxGeometry y="530" width="70" height="30" as="geometry" />
        </mxCell>
        <mxCell id="u_KcOXQezjTu5k9KhrhK-59" value="IAM Role" style="text;html=1;align=center;verticalAlign=middle;resizable=0;points=[];autosize=1;strokeColor=none;fillColor=none;" vertex="1" parent="1">
          <mxGeometry x="540" y="515" width="70" height="30" as="geometry" />
        </mxCell>
        <mxCell id="u_KcOXQezjTu5k9KhrhK-60" value="" style="rounded=1;whiteSpace=wrap;html=1;" vertex="1" parent="1">
          <mxGeometry x="235" y="850" width="280" height="120" as="geometry" />
        </mxCell>
        <mxCell id="u_KcOXQezjTu5k9KhrhK-61" value="&amp;nbsp;Stop Button" style="labelPosition=center;verticalLabelPosition=middle;align=center;html=1;shape=mxgraph.basic.shaded_button;dx=10;fillColor=#E6E6E6;strokeColor=none;whiteSpace=wrap;" vertex="1" parent="1">
          <mxGeometry x="400" y="880" width="100" height="60" as="geometry" />
        </mxCell>
        <mxCell id="u_KcOXQezjTu5k9KhrhK-62" value="Start Button" style="labelPosition=center;verticalLabelPosition=middle;align=center;html=1;shape=mxgraph.basic.shaded_button;dx=10;fillColor=#E6E6E6;strokeColor=none;whiteSpace=wrap;" vertex="1" parent="1">
          <mxGeometry x="260" y="880" width="100" height="60" as="geometry" />
        </mxCell>
        <mxCell id="u_KcOXQezjTu5k9KhrhK-63" value="href&lt;span style=&quot;color: rgba(0, 0, 0, 0); font-family: monospace; font-size: 0px; text-align: start;&quot;&gt;%3CmxGraphModel%3E%3Croot%3E%3CmxCell%20id%3D%220%22%2F%3E%3CmxCell%20id%3D%221%22%20parent%3D%220%22%2F%3E%3CmxCell%20id%3D%222%22%20value%3D%22Button%22%20style%3D%22labelPosition%3Dcenter%3BverticalLabelPosition%3Dmiddle%3Balign%3Dcenter%3Bhtml%3D1%3Bshape%3Dmxgraph.basic.shaded_button%3Bdx%3D10%3BfillColor%3D%23E6E6E6%3BstrokeColor%3Dnone%3BwhiteSpace%3Dwrap%3B%22%20vertex%3D%221%22%20parent%3D%221%22%3E%3CmxGeometry%20x%3D%22360%22%20y%3D%22890%22%20width%3D%22100%22%20height%3D%2260%22%20as%3D%22geometry%22%2F%3E%3C%2FmxCell%3E%3C%2Froot%3E%3C%2FmxGraphModel%3E&lt;/span&gt;" style="text;html=1;align=center;verticalAlign=middle;resizable=0;points=[];autosize=1;strokeColor=#d79b00;fillColor=#ffe6cc;fontStyle=1" vertex="1" parent="1">
          <mxGeometry x="430" y="940" width="40" height="30" as="geometry" />
        </mxCell>
        <mxCell id="u_KcOXQezjTu5k9KhrhK-64" value="href&lt;span style=&quot;color: rgba(0, 0, 0, 0); font-family: monospace; font-size: 0px; text-align: start;&quot;&gt;%3CmxGraphModel%3E%3Croot%3E%3CmxCell%20id%3D%220%22%2F%3E%3CmxCell%20id%3D%221%22%20parent%3D%220%22%2F%3E%3CmxCell%20id%3D%222%22%20value%3D%22Button%22%20style%3D%22labelPosition%3Dcenter%3BverticalLabelPosition%3Dmiddle%3Balign%3Dcenter%3Bhtml%3D1%3Bshape%3Dmxgraph.basic.shaded_button%3Bdx%3D10%3BfillColor%3D%23E6E6E6%3BstrokeColor%3Dnone%3BwhiteSpace%3Dwrap%3B%22%20vertex%3D%221%22%20parent%3D%221%22%3E%3CmxGeometry%20x%3D%22360%22%20y%3D%22890%22%20width%3D%22100%22%20height%3D%2260%22%20as%3D%22geometry%22%2F%3E%3C%2FmxCell%3E%3C%2Froot%3E%3C%2FmxGraphModel%3E&lt;/span&gt;" style="text;html=1;align=center;verticalAlign=middle;resizable=0;points=[];autosize=1;strokeColor=#d79b00;fillColor=#ffe6cc;fontStyle=1" vertex="1" parent="1">
          <mxGeometry x="280" y="940" width="40" height="30" as="geometry" />
        </mxCell>
        <mxCell id="u_KcOXQezjTu5k9KhrhK-65" value="HTML Page" style="text;html=1;align=center;verticalAlign=middle;resizable=0;points=[];autosize=1;strokeColor=none;fillColor=none;fontFamily=Verdana;fontSize=16;fontStyle=1" vertex="1" parent="1">
          <mxGeometry x="520" y="895" width="110" height="30" as="geometry" />
        </mxCell>
        <mxCell id="u_KcOXQezjTu5k9KhrhK-67" value="" style="shape=singleArrow;direction=north;whiteSpace=wrap;html=1;arrowWidth=0.26666666666666666;arrowSize=0.195;" vertex="1" parent="1">
          <mxGeometry x="290" y="740" width="40" height="140" as="geometry" />
        </mxCell>
        <mxCell id="u_KcOXQezjTu5k9KhrhK-68" value="" style="shape=singleArrow;direction=north;whiteSpace=wrap;html=1;arrowWidth=0.26666666666666666;arrowSize=0.195;" vertex="1" parent="1">
          <mxGeometry x="420" y="740" width="40" height="140" as="geometry" />
        </mxCell>
        <mxCell id="u_KcOXQezjTu5k9KhrhK-71" style="edgeStyle=orthogonalEdgeStyle;rounded=0;orthogonalLoop=1;jettySize=auto;html=1;" edge="1" parent="1">
          <mxGeometry relative="1" as="geometry">
            <mxPoint x="150" y="650" as="sourcePoint" />
            <mxPoint x="290" y="420" as="targetPoint" />
            <Array as="points">
              <mxPoint x="170" y="650" />
              <mxPoint x="170" y="420" />
            </Array>
          </mxGeometry>
        </mxCell>
        <mxCell id="u_KcOXQezjTu5k9KhrhK-74" value="" style="edgeStyle=orthogonalEdgeStyle;rounded=0;orthogonalLoop=1;jettySize=auto;html=1;entryX=1;entryY=0.5;entryDx=0;entryDy=0;entryPerimeter=0;" edge="1" parent="1" source="u_KcOXQezjTu5k9KhrhK-36" target="u_KcOXQezjTu5k9KhrhK-34">
          <mxGeometry relative="1" as="geometry">
            <mxPoint x="390" y="450" as="targetPoint" />
            <mxPoint x="600" y="650" as="sourcePoint" />
            <Array as="points">
              <mxPoint x="590" y="650" />
              <mxPoint x="590" y="590" />
              <mxPoint x="540" y="590" />
              <mxPoint x="540" y="450" />
            </Array>
          </mxGeometry>
        </mxCell>
        <mxCell id="u_KcOXQezjTu5k9KhrhK-34" value="Amazon EC2" style="sketch=0;outlineConnect=0;fontColor=#232F3E;gradientColor=none;strokeColor=#ffffff;fillColor=#232F3E;dashed=0;verticalLabelPosition=middle;verticalAlign=bottom;align=center;html=1;whiteSpace=wrap;fontSize=10;fontStyle=1;spacing=3;shape=mxgraph.aws4.productIcon;prIcon=mxgraph.aws4.ec2;" vertex="1" parent="1">
          <mxGeometry x="290" y="400" width="80" height="100" as="geometry" />
        </mxCell>
        <mxCell id="u_KcOXQezjTu5k9KhrhK-76" value="" style="endArrow=classic;startArrow=classic;html=1;rounded=0;" edge="1" parent="1">
          <mxGeometry width="50" height="50" relative="1" as="geometry">
            <mxPoint x="160" y="680" as="sourcePoint" />
            <mxPoint x="270" y="680" as="targetPoint" />
          </mxGeometry>
        </mxCell>
        <mxCell id="u_KcOXQezjTu5k9KhrhK-77" value="" style="endArrow=classic;startArrow=classic;html=1;rounded=0;" edge="1" parent="1" target="u_KcOXQezjTu5k9KhrhK-36">
          <mxGeometry width="50" height="50" relative="1" as="geometry">
            <mxPoint x="480" y="680" as="sourcePoint" />
            <mxPoint x="280" y="690" as="targetPoint" />
          </mxGeometry>
        </mxCell>
      </root>
    </mxGraphModel>
  </diagram>
</mxfile>
